# xmcd
#
# Track frame offsets:
#	150
#	33116
#	54166
#	73176
#	99461
#	122839
#	133339
#	149505
#	166723
#
# Disc length: 2667 seconds
#
# Revision: 1
# Processed by: cddbd v1.5.1PL2 Copyright (c) Steve Scherf et al.
# Submitted via: EasyCDDAExtractor 9.0.0.1
#
DISCID=7c0a6909
DTITLE=Deep Purple  - Arrow Rock Festival Lichtenvoorde 09-06-06 Disc 1
DYEAR=2006
DGENRE=Hard Rock
TTITLE0=Pictures Of Home
TTITLE1=Things I Never Said
TTITLE2=Hush
TTITLE3=Rapture Of The Deep
TTITLE4=Strange Kind Of Woman
TTITLE5=Steve's Solo
TTITLE6=Fireball
TTITLE7=When A Blind Man Cries
TTITLE8=Lazy
EXTD=
EXTT0=
EXTT1=
EXTT2=
EXTT3=
EXTT4=
EXTT5=
EXTT6=
EXTT7=
EXTT8=
PLAYORDER=
